<svg width="23" height="29" viewBox="0 0 23 29" fill="none" xmlns="http://www.w3.org/2000/svg">
<path d="M18.872 15.3949C18.8407 11.9262 21.6838 10.2385 21.8145 10.1611C20.2048 7.79056 17.7083 7.46674 16.8321 7.44034C14.7363 7.21684 12.7033 8.70744 11.6354 8.70744C10.5466 8.70744 8.90202 7.46322 7.13031 7.49842C4.8499 7.53362 2.71757 8.86759 1.54688 10.9372C-0.867667 15.1591 0.933662 21.3626 3.24717 24.775C4.40392 26.4468 5.75579 28.3123 7.52576 28.2472C9.25741 28.1768 9.90372 27.1332 11.9942 27.1332C14.0639 27.1332 14.6718 28.2472 16.4767 28.2049C18.3355 28.175 19.5044 26.526 20.6211 24.8401C21.959 22.9253 22.4956 21.0388 22.5165 20.942C22.473 20.9261 18.9086 19.5517 18.872 15.3949ZM15.4628 5.19652C16.3948 4.02094 17.0307 2.41947 16.8547 0.796875C15.5063 0.85671 13.8217 1.7384 12.8496 2.88935C11.9908 3.90303 11.2242 5.56433 11.4211 7.12709C12.9367 7.23972 14.4907 6.35451 15.4628 5.19652Z" fill="white"/>
</svg>
