<svg width="147" height="44" viewBox="0 0 147 44" fill="none" xmlns="http://www.w3.org/2000/svg">
<path d="M146.025 38.8049C146.025 41.1315 144.157 43.0198 141.852 43.0198C141.851 43.0198 141.849 43.0198 141.847 43.0198H5.15153C2.84499 43.0216 0.972234 41.135 0.96875 38.8049V5.19866C0.972234 2.8686 2.84499 0.980275 5.15153 0.978516H141.845C144.152 0.978516 146.023 2.86684 146.023 5.1969C-nan -nan -nan -nan -nan -nanC-nan -nan -nan -nan 146.023 5.1969C146.023 5.1969 146.023 5.1969 146.023 5.19866L146.025 38.8049Z" fill="white"/>
<path d="M141.847 44H5.15139C2.31002 44 0.0052263 41.6752 0 38.8049V5.20038C0.0034842 2.32829 2.30828 0.00175986 5.15139 0H141.845C144.688 0.00351972 146.991 2.32829 146.997 5.20038V38.8049C147 41.6699 144.685 44 141.847 44Z" fill="#1A1E23"/>
<path d="M146.025 38.8049C146.025 41.1315 144.157 43.0198 141.852 43.0198C141.851 43.0198 141.849 43.0198 141.847 43.0198H5.15153C2.84499 43.0216 0.972234 41.135 0.96875 38.8049V5.19866C0.972234 2.8686 2.84499 0.980275 5.15153 0.978516H141.845C144.152 0.978516 146.023 2.86684 146.023 5.1969C-nan -nan -nan -nan -nan -nanC-nan -nan -nan -nan 146.023 5.1969C146.023 5.1969 146.023 5.1969 146.023 5.19866L146.025 38.8049Z" fill="#010101"/>
<path opacity="0.1" d="M141.848 0H68.6309L97.3093 44H141.85C144.693 43.9982 146.996 41.6735 147.001 38.8014V5.20038C146.996 2.32829 144.691 0.00351972 141.848 0Z" fill="white"/>
<path d="M33.872 22.3949C33.8407 18.9262 36.6838 17.2385 36.8145 17.1611C35.2048 14.7906 32.7083 14.4667 31.8321 14.4403C29.7363 14.2168 27.7033 15.7074 26.6354 15.7074C25.5466 15.7074 23.902 14.4632 22.1303 14.4984C19.8499 14.5336 17.7176 15.8676 16.5469 17.9372C14.1323 22.1591 15.9337 28.3626 18.2472 31.775C19.4039 33.4468 20.7558 35.3123 22.5258 35.2472C24.2574 35.1768 24.9037 34.1332 26.9942 34.1332C29.0639 34.1332 29.6718 35.2472 31.4767 35.2049C33.3355 35.175 34.5044 33.526 35.6211 31.8401C36.959 29.9253 37.4956 28.0388 37.5165 27.942C37.473 27.9261 33.9086 26.5517 33.872 22.3949ZM30.4628 12.1965C31.3948 11.0209 32.0307 9.41947 31.8547 7.79688C30.5063 7.85671 28.8217 8.7384 27.8496 9.88935C26.9908 10.903 26.2242 12.5643 26.4211 14.1271C27.9367 14.2397 29.4907 13.3545 30.4628 12.1965Z" fill="white"/>
<path d="M58.9502 33.7636H56.5304L55.2047 29.5575H50.5969L49.3338 33.7636H46.9785L51.5446 19.4436H54.3633L58.9502 33.7636ZM54.8058 27.7924L53.6072 24.0527C53.48 23.6708 53.2414 22.7715 52.8929 21.3548H52.8511C52.71 21.9637 52.4853 22.863 52.1769 24.0527L50.9993 27.7924H54.8058ZM70.6693 28.4734C70.6693 30.2298 70.1972 31.6183 69.253 32.6373C68.4063 33.5436 67.3558 33.9976 66.1015 33.9976C64.7479 33.9976 63.7741 33.5102 63.1818 32.5334V37.952H60.9101V26.8333C60.9101 25.7298 60.8805 24.6 60.8265 23.4385H62.8246L62.9518 25.0752H62.9936C63.7514 23.8415 64.9012 23.2255 66.443 23.2255C67.6485 23.2255 68.6554 23.706 69.462 24.6704C70.2651 25.6348 70.6693 26.9019 70.6693 28.4734ZM68.3541 28.5579C68.3541 27.553 68.1311 26.7241 67.6799 26.0712C67.1886 25.3919 66.5283 25.0523 65.7026 25.0523C65.1416 25.0523 64.6329 25.2423 64.1782 25.6154C63.7218 25.992 63.4239 26.483 63.2846 27.0937C63.2218 27.3207 63.187 27.5566 63.1783 27.7924V29.5153C63.1783 30.265 63.4065 30.8985 63.8629 31.4177C64.3194 31.9351 64.9117 32.1938 65.6399 32.1938C66.4952 32.1938 67.1607 31.8594 67.6381 31.1959C68.1154 30.5272 68.3541 29.649 68.3541 28.5579ZM82.4285 28.4734C82.4285 30.2298 81.9564 31.6183 81.0121 32.6373C80.1655 33.5436 79.115 33.9976 77.8589 33.9976C76.5053 33.9976 75.5315 33.5102 74.9392 32.5334V37.952H72.6675V26.8333C72.6675 25.7298 72.6379 24.6 72.5839 23.4385H74.5821L74.7092 25.0752H74.751C75.5071 23.8415 76.6569 23.2255 78.2004 23.2255C79.4059 23.2255 80.4129 23.706 81.2195 24.6704C82.0243 25.6348 82.4285 26.9019 82.4285 28.4734ZM80.1132 28.5579C80.1132 27.553 79.8885 26.7241 79.439 26.0712C78.9478 25.3919 78.291 25.0523 77.4635 25.0523C76.9025 25.0523 76.3938 25.2423 75.9374 25.6154C75.481 25.992 75.1848 26.483 75.0437 27.0937C74.974 27.377 74.9375 27.6094 74.9375 27.7924V29.5153C74.9375 30.265 75.1674 30.8985 75.6203 31.4177C76.0768 31.9333 76.6691 32.1938 77.399 32.1938C78.2561 32.1938 78.9216 31.8594 79.3972 31.1959C79.8746 30.5272 80.1132 29.649 80.1132 28.5579ZM95.5778 29.7476C95.5778 30.9672 95.1562 31.958 94.3166 32.7235C93.3932 33.5594 92.1058 33.9765 90.4543 33.9765C88.9282 33.9765 87.7053 33.6791 86.782 33.0843L87.3081 31.1713C88.3046 31.7679 89.3986 32.0653 90.5902 32.0653C91.4473 32.0653 92.1128 31.87 92.5884 31.481C93.064 31.0921 93.3061 30.5712 93.3061 29.92C93.3061 29.3375 93.1075 28.8501 92.7156 28.4541C92.3219 28.0581 91.672 27.6885 90.7592 27.3507C88.2767 26.4162 87.0346 25.047 87.0346 23.2484C87.0346 22.0728 87.4736 21.112 88.3499 20.3587C89.2261 19.6073 90.3864 19.2324 91.8323 19.2324C93.1232 19.2324 94.1981 19.4594 95.0517 19.9117L94.482 21.7825C93.6789 21.3443 92.7713 21.1243 91.7574 21.1243C90.956 21.1243 90.3271 21.3231 89.8777 21.7191C89.4996 22.0728 89.308 22.504 89.308 23.0161C89.308 23.581 89.5258 24.0509 89.9613 24.4187C90.3393 24.7584 91.0275 25.1262 92.0222 25.5222C93.2434 26.0184 94.1406 26.5974 94.7155 27.2627C95.2904 27.9279 95.5778 28.7585 95.5778 29.7476ZM103.107 25.1596H100.604V30.1735C100.604 31.4494 101.045 32.0847 101.93 32.0847C102.335 32.0847 102.672 32.0495 102.938 31.9773L103.001 33.7196C102.553 33.8885 101.964 33.973 101.234 33.973C100.337 33.973 99.6369 33.6967 99.13 33.1441C98.6265 32.5915 98.3722 31.6641 98.3722 30.36V25.1543H96.8809V23.4332H98.3722V21.5431L100.604 20.8638V23.435H103.107V25.1596ZM114.384 28.5157C114.384 30.1031 113.934 31.4054 113.037 32.4243C112.098 33.4732 110.849 33.9959 109.293 33.9959C107.792 33.9959 106.597 33.4926 105.706 32.4894C104.816 31.4828 104.37 30.2157 104.37 28.6864C104.37 27.0867 104.83 25.7756 105.748 24.7566C106.668 23.7359 107.907 23.2255 109.462 23.2255C110.962 23.2255 112.168 23.7289 113.079 24.7337C113.95 25.7122 114.384 26.9705 114.384 28.5157ZM112.028 28.5685C112.028 27.6234 111.826 26.8104 111.42 26.1328C110.945 25.3127 110.262 24.9027 109.379 24.9027C108.469 24.9027 107.771 25.3127 107.295 26.1328C106.888 26.8121 106.685 27.6375 106.685 28.6125C106.685 29.5593 106.888 30.3723 107.295 31.0499C107.786 31.87 108.471 32.28 109.36 32.28C110.227 32.28 110.908 31.8612 111.401 31.0288C111.819 30.3336 112.028 29.517 112.028 28.5685ZM121.77 25.4553C121.533 25.413 121.295 25.3902 121.054 25.3919C120.255 25.3919 119.638 25.6946 119.202 26.3071C118.824 26.8456 118.636 27.5249 118.636 28.3467V33.7653H116.365V26.6907C116.366 25.6066 116.345 24.5226 116.298 23.4402H118.277L118.361 25.4166H118.424C118.664 24.7373 119.042 24.1899 119.56 23.7799C120.033 23.4209 120.61 23.2273 121.202 23.2273C121.411 23.2273 121.601 23.2431 121.77 23.2695V25.4553ZM131.93 28.1127C131.935 28.4611 131.908 28.8096 131.847 29.1527H125.031C125.058 30.1735 125.387 30.9548 126.021 31.4916C126.596 31.972 127.338 32.2131 128.251 32.2131C129.26 32.2131 130.181 32.0512 131.009 31.7257L131.364 33.3166C130.397 33.7425 129.254 33.9554 127.936 33.9554C126.35 33.9554 125.106 33.4838 124.201 32.544C123.296 31.6025 122.843 30.3371 122.843 28.7515C122.843 27.1958 123.265 25.8988 124.106 24.864C124.988 23.7605 126.181 23.2079 127.681 23.2079C129.155 23.2079 130.27 23.7605 131.028 24.864C131.629 25.7404 131.93 26.8245 131.93 28.1127ZM129.765 27.5178C129.78 26.8368 129.632 26.2507 129.324 25.7545C128.93 25.1156 128.326 24.7971 127.514 24.7971C126.772 24.7971 126.166 25.1086 125.706 25.7316C125.328 26.2279 125.103 26.8245 125.033 27.5161L129.765 27.5178Z" fill="white"/>
<path d="M49.9427 15.6216C49.3103 15.6216 48.765 15.5899 48.3086 15.5371V8.61557C48.9445 8.51702 49.5873 8.46775 50.2319 8.46951C52.8363 8.46951 54.0366 9.76476 54.0366 11.8748C54.0384 14.307 52.6203 15.6216 49.9427 15.6216ZM50.3242 9.35647C49.9723 9.35647 49.6727 9.37759 49.4253 9.43039V14.6941C49.5594 14.7152 49.8173 14.7258 50.1796 14.7258C51.8869 14.7258 52.859 13.7438 52.859 11.9065C52.859 10.2663 51.9792 9.35647 50.3242 9.35647ZM57.7769 15.6744C56.3083 15.6744 55.3571 14.5674 55.3571 13.0645C55.3571 11.4982 56.3292 10.3807 57.8605 10.3807C59.3082 10.3807 60.2803 11.4349 60.2803 12.9818C60.2803 14.5674 59.2768 15.6744 57.7769 15.6744ZM57.8205 11.2043C57.0139 11.2043 56.4965 11.9663 56.4965 13.0311C56.4965 14.0764 57.0243 14.8384 57.81 14.8384C58.5957 14.8384 59.1235 14.0236 59.1235 13.0099C59.1218 11.9769 58.6044 11.2043 57.8205 11.2043ZM68.6528 10.4845L67.0814 15.56H66.0571L65.4056 13.3566C65.2435 12.8181 65.1094 12.2708 65.0014 11.7182H64.9805C64.8986 12.2708 64.7436 12.8252 64.5781 13.3566L63.8847 15.56H62.8499L61.3708 10.4845H62.5189L63.0886 12.8973C63.2227 13.4728 63.3359 14.0148 63.43 14.5269H63.4509C63.5328 14.0993 63.6669 13.5661 63.8638 12.9079L64.5781 10.4863H65.4874L66.1703 12.8568C66.3358 13.4323 66.47 13.9955 66.5745 14.5287H66.6041C66.6773 14.006 66.7905 13.4534 66.9456 12.8568L67.5553 10.4863L68.6528 10.4845ZM74.4383 15.56H73.3216V12.6457C73.3216 11.7481 72.9802 11.2976 72.3077 11.2976C71.6457 11.2976 71.1911 11.8731 71.1911 12.5401V15.5582H70.0744V11.9364C70.0744 11.4877 70.0639 11.0072 70.0326 10.4845H71.0151L71.0674 11.2677H71.0987C71.3984 10.7256 72.0081 10.3807 72.691 10.3807C73.7467 10.3807 74.4383 11.1955 74.4383 12.5207V15.56ZM77.5184 15.56H76.3999V8.15625H77.5184V15.56ZM81.5896 15.6744C80.1228 15.6744 79.1699 14.5674 79.1699 13.0645C79.1699 11.4982 80.142 10.3807 81.6715 10.3807C83.1192 10.3807 84.0913 11.4349 84.0913 12.9818C84.093 14.5674 83.0878 15.6744 81.5896 15.6744ZM81.6315 11.2043C80.8249 11.2043 80.3075 11.9663 80.3075 13.0311C80.3075 14.0764 80.8353 14.8384 81.6193 14.8384C82.4049 14.8384 82.9328 14.0236 82.9328 13.0099C82.9328 11.9769 82.4171 11.2043 81.6315 11.2043ZM88.4936 15.56L88.4134 14.9757H88.3838C88.0424 15.4456 87.5459 15.6744 86.9152 15.6744C86.0146 15.6744 85.3752 15.0373 85.3752 14.1802C85.3752 12.9272 86.4501 12.2796 88.3124 12.2796V12.1863C88.3124 11.5176 87.9622 11.1832 87.2689 11.1832C86.7741 11.1832 86.3386 11.3099 85.9553 11.5598L85.7289 10.8189C86.194 10.5268 86.7724 10.3807 87.4535 10.3807C88.7671 10.3807 89.4291 11.0794 89.4291 12.4802V14.3492C89.4291 14.8613 89.4517 15.259 89.5023 15.5617L88.4936 15.56ZM88.3403 13.0328C87.0999 13.0328 86.478 13.3355 86.478 14.0571C86.478 14.5903 86.7985 14.8508 87.2445 14.8508C87.8124 14.8508 88.3403 14.4125 88.3403 13.8177V13.0328ZM94.8505 15.56L94.7982 14.7452H94.7669C94.4463 15.3611 93.9063 15.6744 93.1537 15.6744C91.9429 15.6744 91.0458 14.5991 91.0458 13.0839C91.0458 11.4965 91.976 10.379 93.246 10.379C93.9185 10.379 94.3941 10.6077 94.6624 11.0688H94.685V8.15625H95.8034V14.1926C95.8034 14.6836 95.8156 15.1429 95.8452 15.56H94.8505ZM94.685 12.5735C94.685 11.8625 94.2199 11.2571 93.5091 11.2571C92.6816 11.2571 92.1746 11.998 92.1746 13.0416C92.1746 14.0659 92.7007 14.7663 93.4864 14.7663C94.1885 14.7663 94.685 14.1503 94.685 13.4182V12.5735ZM102.89 15.6744C101.423 15.6744 100.472 14.5674 100.472 13.0645C100.472 11.4982 101.444 10.3807 102.974 10.3807C104.422 10.3807 105.394 11.4349 105.394 12.9818C105.394 14.5674 104.392 15.6744 102.89 15.6744ZM102.932 11.2043C102.127 11.2043 101.61 11.9663 101.61 13.0311C101.61 14.0764 102.138 14.8384 102.922 14.8384C103.707 14.8384 104.235 14.0236 104.235 13.0099C104.237 11.9769 103.72 11.2043 102.932 11.2043ZM111.399 15.56H110.28V12.6457C110.28 11.7481 109.939 11.2976 109.266 11.2976C108.604 11.2976 108.151 11.8731 108.151 12.5401V15.5582H107.033V11.9364C107.033 11.4877 107.023 11.0072 106.991 10.4845H107.974L108.026 11.2677H108.057C108.357 10.7256 108.967 10.3807 109.65 10.3807C110.705 10.3807 111.399 11.1955 111.399 12.5207V15.56ZM118.912 11.331H117.684V13.7948C117.684 14.4213 117.9 14.7346 118.334 14.7346C118.531 14.7346 118.696 14.7135 118.829 14.6818L118.86 15.5389C118.644 15.6233 118.353 15.6656 117.994 15.6656C117.115 15.6656 116.588 15.1746 116.588 13.8899V11.331H115.855V10.4845H116.588V9.55534L117.684 9.22097V10.4845H118.912V11.331ZM124.823 15.56H123.708V12.6668C123.708 11.7587 123.369 11.2994 122.694 11.2994C122.116 11.2994 121.576 11.6971 121.576 12.4996V15.5582H120.461V8.15625H121.576V11.2043H121.599C121.951 10.6517 122.459 10.379 123.109 10.379C124.172 10.379 124.823 11.2149 124.823 12.5401V15.56ZM130.879 13.2933H127.527C127.548 14.2542 128.179 14.7962 129.111 14.7962C129.605 14.7962 130.062 14.7117 130.464 14.5569L130.638 15.34C130.163 15.5494 129.604 15.6532 128.952 15.6532C127.381 15.6532 126.45 14.6501 126.45 13.0962C126.45 11.5405 127.403 10.3702 128.827 10.3702C130.111 10.3702 130.915 11.331 130.915 12.7829C130.926 12.9536 130.912 13.1261 130.879 13.2933ZM129.856 12.489C129.856 11.7059 129.466 11.1533 128.752 11.1533C128.111 11.1533 127.604 11.7164 127.531 12.489H129.856Z" fill="white"/>
</svg>
