<svg width="76" height="46" viewBox="0 0 76 46" fill="none" xmlns="http://www.w3.org/2000/svg">
<path fill-rule="evenodd" clip-rule="evenodd" d="M45.6293 19.0739C43.6548 17.8201 43.6548 14.9348 45.6293 13.681L61.0813 3.86867C63.2038 2.52087 65.9762 4.04812 65.9762 6.56514V16.3774V26.1897C65.9762 28.7067 63.2038 30.234 61.0813 28.8862L45.6293 19.0739Z" fill="#FF6D00"/>
<path fill-rule="evenodd" clip-rule="evenodd" d="M23.646 3.78011C23.2373 3.57345 23.0705 3.05973 23.36 2.70575C24.7102 1.05462 26.7678 0 29.0728 0H48.4642C51.4015 0 53.9372 1.71266 55.1191 4.18992C55.2692 4.5045 55.1422 4.87393 54.8465 5.05997L41.8666 13.2272C39.5796 14.6662 39.5796 17.9877 41.8666 19.4266L54.8834 27.617C55.1762 27.8013 55.3041 28.1658 55.1595 28.4793C53.9956 31.0028 51.4354 32.7552 48.4642 32.7552H29.0728C25.0059 32.7552 21.709 29.472 21.709 25.4219V23.8045C21.709 23.7851 21.7178 23.7668 21.7331 23.7548C21.7804 23.7178 21.8348 23.6908 21.8924 23.6735C26.3315 22.3376 29.5637 18.2328 29.5637 13.3763C29.5637 9.18606 27.1575 5.55548 23.646 3.78011Z" fill="#171E26"/>
<path fill-rule="evenodd" clip-rule="evenodd" d="M21.3406 21.8255C21.2828 21.8429 21.228 21.8697 21.1806 21.9068C20.3754 22.5368 19.7509 23.4276 19.307 24.2124C19.0941 24.5887 18.4966 24.5792 18.2851 24.2021C17.6748 23.1137 16.9496 22.3624 16.3477 21.894C16.3008 21.8575 16.2468 21.8308 16.1898 21.8133C12.618 20.7211 10.0234 17.434 10.0234 13.5486C10.0234 8.77096 13.9463 4.89795 18.7853 4.89795C23.6243 4.89795 27.5471 8.77096 27.5471 13.5486C27.5471 17.4485 24.9332 20.7457 21.3406 21.8255ZM15.5767 15.1325C16.1901 15.1325 16.6874 14.6415 16.6874 14.0359C16.6874 13.4303 16.1901 12.9394 15.5767 12.9394C14.9633 12.9394 14.4661 13.4303 14.4661 14.0359C14.4661 14.6415 14.9633 15.1325 15.5767 15.1325ZM18.7853 15.1325C19.3987 15.1325 19.8959 14.6415 19.8959 14.0359C19.8959 13.4303 19.3987 12.9394 18.7853 12.9394C18.1719 12.9394 17.6746 13.4303 17.6746 14.0359C17.6746 14.6415 18.1719 15.1325 18.7853 15.1325ZM23.1045 14.0359C23.1045 14.6415 22.6072 15.1325 21.9938 15.1325C21.3805 15.1325 20.8832 14.6415 20.8832 14.0359C20.8832 13.4303 21.3805 12.9394 21.9938 12.9394C22.6072 12.9394 23.1045 13.4303 23.1045 14.0359Z" fill="#FF6D00"/>
<path d="M66.6425 44.9513C66.3966 44.9513 66.1875 44.7431 66.1875 44.4982V39.6492C66.1875 39.3921 66.3966 39.1962 66.6425 39.1962H71.8935C72.1517 39.1962 72.3608 38.988 72.3608 38.7309V38.3023C72.3608 38.0451 72.1517 37.837 71.8935 37.837H66.6425C66.3966 37.837 66.1875 37.6288 66.1875 37.3839V36.2329C66.1875 35.9757 66.3966 35.7676 66.6425 35.7676H72.3608C73.6274 35.7676 74.6604 36.7962 74.6604 38.0696V39.2206C74.6604 39.3309 74.7218 39.4288 74.8202 39.4778C75.5335 39.8819 76.0008 40.6288 76.0008 41.486V42.6615C76.0008 43.9227 74.9678 44.9513 73.7012 44.9513H66.6425ZM68.4871 41.7186V42.4288C68.4871 42.686 68.6962 42.8819 68.9544 42.8819H73.2339C73.4921 42.8819 73.7012 42.686 73.7012 42.4288V41.7186C73.7012 41.4615 73.4921 41.2533 73.2339 41.2533H68.9544C68.6962 41.2533 68.4871 41.4615 68.4871 41.7186Z" fill="#171E26"/>
<path d="M56.8973 44.9513C55.6306 44.9513 54.5977 43.9227 54.5977 42.6615V36.2329C54.5977 35.9757 54.8067 35.7676 55.0527 35.7676H56.4423C56.7005 35.7676 56.8973 35.9757 56.8973 36.2329V41.7431C56.8973 42.3676 57.4137 42.8819 58.0532 42.8819H61.1398C61.7793 42.8819 62.2958 42.3676 62.2958 41.7431V36.2329C62.2958 35.9757 62.5048 35.7676 62.7508 35.7676H64.1404C64.3863 35.7676 64.5954 35.9757 64.5954 36.2329V42.6615C64.5954 43.9227 63.5624 44.9513 62.2958 44.9513H56.8973Z" fill="#171E26"/>
<path d="M43.4296 44.9513C43.1837 44.9513 42.9746 44.7431 42.9746 44.4982V36.2329C42.9746 35.9757 43.1837 35.7676 43.4296 35.7676H44.8192C45.0775 35.7676 45.2742 35.9757 45.2742 36.2329V44.4982C45.2742 44.7431 45.0775 44.9513 44.8192 44.9513H43.4296ZM46.59 41.2533C46.3318 41.2533 46.1227 41.0574 46.1227 40.8002V39.6492C46.1227 39.3921 46.3318 39.1962 46.59 39.1962H50.2423C50.5006 39.1962 50.7096 38.988 50.7096 38.7309V36.2329C50.7096 35.9757 50.9187 35.7676 51.1646 35.7676H52.5542C52.8125 35.7676 53.0092 35.9757 53.0092 36.2329V44.4982C53.0092 44.7431 52.8125 44.9513 52.5542 44.9513H51.1646C50.9187 44.9513 50.7096 44.7431 50.7096 44.4982V41.7186C50.7096 41.4615 50.5006 41.2533 50.2423 41.2533H46.59Z" fill="#171E26"/>
<path d="M30.8245 44.9513C30.5048 44.9513 30.2834 44.6329 30.3941 44.3268L33.5299 36.2206C33.6283 35.9513 33.8865 35.7676 34.1694 35.7676H37.8094C38.0922 35.7676 38.3505 35.9513 38.4488 36.2206L41.5847 44.3268C41.6953 44.6329 41.474 44.9513 41.1543 44.9513H39.5187C39.322 44.9513 39.1498 44.8288 39.0883 44.6574L36.7272 38.1308C36.6534 37.9594 36.4813 37.837 36.2968 37.837H35.6819C35.4975 37.837 35.3253 37.9594 35.2515 38.1308L33.6652 42.2574C33.5422 42.5635 33.7759 42.8819 34.0956 42.8819H36.8133C37.0715 42.8819 37.2929 43.0411 37.3913 43.2737L37.7971 44.3268C37.9078 44.6329 37.6864 44.9513 37.3667 44.9513H30.8245Z" fill="#171E26"/>
<path d="M21.0741 37.837C20.8282 37.837 20.6191 37.6288 20.6191 37.3839V36.2329C20.6191 35.9757 20.8282 35.7676 21.0741 35.7676H30.2602C30.5185 35.7676 30.7275 35.9757 30.7275 36.2329V37.3839C30.7275 37.6288 30.5185 37.837 30.2602 37.837H21.0741ZM24.9847 38.6696H26.362C26.6202 38.6696 26.8293 38.8655 26.8293 39.1227V44.4982C26.8293 44.7431 26.6202 44.9513 26.362 44.9513H24.9847C24.7264 44.9513 24.5174 44.7431 24.5174 44.4982V39.1227C24.5174 38.8655 24.7264 38.6696 24.9847 38.6696Z" fill="#171E26"/>
<path d="M10.4319 44.9513C10.1122 44.9513 9.89084 44.6329 10.0015 44.3268L13.1373 36.2206C13.2357 35.9513 13.494 35.7676 13.7768 35.7676H17.4168C17.6996 35.7676 17.9579 35.9513 18.0563 36.2206L21.1921 44.3268C21.3028 44.6329 21.0814 44.9513 20.7617 44.9513H19.1261C18.9294 44.9513 18.7572 44.8288 18.6957 44.6574L16.3346 38.1308C16.2609 37.9594 16.0887 37.837 15.9042 37.837H15.2894C15.1049 37.837 14.9327 37.9594 14.859 38.1308L13.2726 42.2574C13.1496 42.5635 13.3833 42.8819 13.703 42.8819H16.4207C16.679 42.8819 16.9003 43.0411 16.9987 43.2737L17.4045 44.3268C17.5152 44.6329 17.2938 44.9513 16.9741 44.9513H10.4319Z" fill="#171E26"/>
<path d="M0.700948 37.837C0.455001 37.837 0.245947 37.6288 0.245947 37.3839V36.2329C0.245947 35.9758 0.455001 35.7676 0.700948 35.7676L8.19002 35.7554C8.44827 35.7554 8.64502 35.9635 8.64502 36.2207V37.3717C8.64502 37.6166 8.44827 37.8248 8.19002 37.8248L0.700948 37.837ZM0.455001 44.9513C0.209055 44.9513 0 44.7432 0 44.4983V42.9554C0 42.686 0.122973 42.4166 0.344325 42.2452L4.48852 38.8656C4.66069 38.7431 4.86974 38.6697 5.0788 38.6697H7.52597C7.75961 38.6697 7.85799 38.9513 7.68583 39.0982L3.51704 42.4778C3.35717 42.6125 3.45555 42.8819 3.6646 42.8819H8.32529C8.58354 42.8819 8.78029 43.0901 8.78029 43.3472V44.4983C8.78029 44.7432 8.58354 44.9513 8.32529 44.9513H0.455001Z" fill="#171E26"/>
</svg>
