<svg width="200" height="80" viewBox="0 0 200 80" fill="none" xmlns="http://www.w3.org/2000/svg">
<g clip-path="url(#clip0_641_15852)">
<path fill-rule="evenodd" clip-rule="evenodd" d="M76.1426 49.8689L77.8256 45.9581C79.6434 47.3174 82.0654 48.0241 84.4551 48.0241C86.219 48.0241 87.3356 47.3444 87.3356 46.3141C87.3086 43.4336 76.7683 45.6884 76.6874 38.4655C76.6604 34.7974 79.9185 31.9708 84.536 31.9708C87.2817 31.9708 90.0219 32.6505 91.98 34.1986L90.4049 38.1904C88.614 37.0468 86.3862 36.2323 84.2663 36.2323C82.826 36.2323 81.8766 36.9119 81.8766 37.7804C81.9036 40.607 92.5249 39.0589 92.6327 45.9581C92.6327 49.7071 89.4555 52.3449 84.892 52.3449C81.5476 52.3395 78.4783 51.5519 76.1426 49.8689ZM140.771 44.5448C139.929 46.012 138.354 47.0153 136.531 47.0153C133.839 47.0153 131.671 44.8415 131.671 42.1551C131.671 39.4688 133.845 37.2949 136.531 37.2949C138.349 37.2949 139.929 38.2983 140.771 39.7655L145.415 37.1871C143.678 34.0908 140.334 31.9708 136.531 31.9708C130.905 31.9708 126.341 36.5344 126.341 42.1605C126.341 47.7867 130.905 52.3502 136.531 52.3502C140.361 52.3502 143.678 50.2573 145.415 47.134L140.771 44.5448ZM94.9685 23.5181H100.783V51.9619H94.9685V23.5181ZM147.697 23.5181V51.9619H153.512V43.4282L160.411 51.9619H167.855L159.079 41.8261L167.203 32.37H160.082L153.507 40.2186V23.5181H147.697Z" fill="#B7C0CC"/>
<path d="M118.062 44.5986C117.22 45.9849 115.483 47.0152 113.525 47.0152C110.833 47.0152 108.665 44.8414 108.665 42.155C108.665 39.4687 110.839 37.2948 113.525 37.2948C115.483 37.2948 117.22 38.3791 118.062 39.7924V44.5986ZM118.062 32.3753V34.684C117.112 33.0819 114.749 31.9653 112.274 31.9653C107.165 31.9653 103.146 36.4749 103.146 42.1281C103.146 47.7812 107.165 52.3447 112.274 52.3447C114.744 52.3447 117.107 51.2335 118.062 49.6261V51.9348H123.877V32.3753H118.062Z" fill="#B7C0CC"/>
<path fill-rule="evenodd" clip-rule="evenodd" d="M40.2017 44.5715C40.2017 46.5566 38.5996 48.1587 36.6145 48.1587C34.6294 48.1587 33.0273 46.5512 33.0273 44.5715C33.0273 42.5919 34.6294 40.9844 36.6145 40.9844H40.2017V44.5715ZM41.9926 44.5715C41.9926 42.5865 43.5946 40.9844 45.5797 40.9844C47.5648 40.9844 49.1669 42.5865 49.1669 44.5715V53.5368C49.1669 55.5219 47.5648 57.1239 45.5797 57.1239C43.5946 57.1239 41.9926 55.5219 41.9926 53.5368V44.5715Z" fill="#B7C0CC"/>
<path fill-rule="evenodd" clip-rule="evenodd" d="M45.5794 30.1743C43.5943 30.1743 41.9922 28.5722 41.9922 26.5872C41.9922 24.6021 43.5943 23 45.5794 23C47.5644 23 49.1665 24.6021 49.1665 26.5872V30.1743H45.5794ZM45.5794 31.9922C47.5644 31.9922 49.1665 33.5943 49.1665 35.5794C49.1665 37.5644 47.5644 39.1665 45.5794 39.1665H36.5872C34.6021 39.1665 33 37.559 33 35.5794C33 33.5997 34.6021 31.9922 36.5872 31.9922H45.5794Z" fill="#B7C0CC"/>
<path fill-rule="evenodd" clip-rule="evenodd" d="M59.9496 35.5794C59.9496 33.5943 61.5517 31.9922 63.5368 31.9922C65.5218 31.9922 67.1239 33.5943 67.1239 35.5794C67.1239 37.5644 65.5218 39.1665 63.5368 39.1665H59.9496V35.5794ZM58.1587 35.5794C58.1587 37.5644 56.5566 39.1665 54.5715 39.1665C52.5865 39.1665 50.9844 37.5644 50.9844 35.5794V26.5872C50.9844 24.6021 52.5865 23 54.5715 23C56.5566 23 58.1587 24.6021 58.1587 26.5872V35.5794Z" fill="#B7C0CC"/>
<path fill-rule="evenodd" clip-rule="evenodd" d="M54.5715 49.9496C56.5566 49.9496 58.1587 51.5517 58.1587 53.5368C58.1587 55.5219 56.5566 57.1239 54.5715 57.1239C52.5865 57.1239 50.9844 55.5219 50.9844 53.5368V49.9496H54.5715ZM54.5715 48.1587C52.5865 48.1587 50.9844 46.5566 50.9844 44.5715C50.9844 42.5865 52.5865 40.9844 54.5715 40.9844H63.5637C65.5488 40.9844 67.1509 42.5865 67.1509 44.5715C67.1509 46.5566 65.5488 48.1587 63.5637 48.1587H54.5715Z" fill="#B7C0CC"/>
</g>
<defs>
<clipPath id="clip0_641_15852">
<rect width="134.856" height="34.1239" fill="white" transform="translate(33 23)"/>
</clipPath>
</defs>
</svg>
