<svg width="200" height="80" viewBox="0 0 200 80" fill="none" xmlns="http://www.w3.org/2000/svg">
<g clip-path="url(#clip0_641_15865)">
<path d="M67.8299 31.4317C65.8995 30.4666 63.8727 30.0805 61.6528 30.0805C59.5295 30.0805 57.5991 30.4666 55.7653 31.2387C53.9315 32.0108 52.3873 32.976 50.9395 34.3272C49.5883 35.6785 48.5266 37.2227 47.7545 38.96C46.9824 40.6973 46.5963 42.5311 46.5963 44.3649C46.5963 46.8743 47.1754 48.9977 48.3336 50.928C49.4918 52.8583 51.1326 54.3061 53.1594 55.3677C55.1862 56.4294 57.3096 56.912 59.7225 56.912C61.7493 56.912 63.5831 56.5259 65.3204 55.8494C67.0577 55.1747 68.602 54.1121 69.9532 52.8574C71.3044 51.6027 72.2696 50.0584 73.0417 48.2246C73.8139 46.3908 74.1999 44.557 74.1999 42.4336C74.1999 39.7312 73.6208 37.4148 72.4626 35.581C71.3044 33.7481 69.7602 32.3969 67.8299 31.4317ZM64.9344 45.7161C64.4518 46.8743 63.7762 47.743 62.9075 48.5151C62.0389 49.1907 61.0737 49.5768 59.9155 49.5768C58.5643 49.5768 57.4061 49.0942 56.634 48.129C55.7653 47.1639 55.3793 46.0057 55.3793 44.5579C55.3793 43.5928 55.5723 42.5311 55.9584 41.3729C56.3444 40.2147 57.02 39.2496 57.8887 38.4774C58.7573 37.7053 59.819 37.3192 61.1702 37.3192C62.5215 37.3192 63.5831 37.8018 64.3553 38.6705C65.2239 39.5391 65.61 40.7938 65.61 42.3381C65.61 43.4963 65.417 44.6545 64.9344 45.7161ZM177.569 30.6596C176.893 30.5631 176.314 30.4666 175.638 30.3701C174.963 30.2735 174.288 30.2735 173.708 30.177C173.032 30.0805 172.453 30.0805 171.971 30.0805C169.365 30.0805 168.014 30.2735 165.794 30.6596C163.574 31.0457 161.644 31.5283 160.003 31.9143L156.142 56.3329H164.926L168.015 36.6446C168.4 36.5481 170.137 36.2585 170.717 36.2585C171.972 36.2585 173.032 36.355 174.095 36.5481C175.157 36.7411 176.025 36.9341 176.798 37.0306L179.21 31.0466C178.727 30.8526 178.244 30.7561 177.569 30.6596ZM126.512 24L112.131 56.3329H120.142L135.295 24H126.512ZM48.2371 30.4666H24.8802L24.0115 36.4506H34.9179L21.0195 56.3329H44.473L45.3416 50.1559H34.5318L48.2371 30.4666ZM113.965 33.7481H105.182L110.78 56.3329L115.798 44.751L113.965 33.7481ZM149.676 31.3352C148.035 30.4666 146.2 30.0805 144.174 30.0805C141.472 30.0805 139.059 30.7561 136.935 32.1074C134.812 33.4586 133.075 35.1959 131.917 37.5123C130.662 39.7321 130.083 42.2416 130.083 44.8475C130.083 46.5848 130.469 48.4186 131.145 50.2524C131.918 52.0862 133.269 53.6305 135.296 54.8852C137.322 56.2364 140.121 56.8155 143.596 56.8155C145.237 56.8155 146.589 56.719 147.747 56.4304C148.809 56.1408 150.257 55.6583 152.09 54.9826L153.345 48.6126C151.415 49.3847 149.774 49.9638 148.422 50.3499C147.072 50.735 145.526 50.929 143.693 50.929C140.218 50.929 138.385 49.0952 138.385 45.5241H154.793C154.986 44.1728 155.178 42.9181 155.178 41.7599C155.178 39.154 154.695 37.0306 153.634 35.1968C152.752 33.5265 151.367 32.1757 149.676 31.3352ZM147.07 40.6973V41.0834H139.155C139.734 39.5391 140.41 38.2844 141.086 37.3192C141.761 36.3541 142.726 35.8715 143.981 35.8715C146.008 35.8715 146.973 37.3192 146.973 40.2147C147.07 40.5043 147.07 40.6008 147.07 40.6973ZM97.8464 31.4317C95.9161 30.4666 93.8892 30.0805 91.6693 30.0805C89.546 30.0805 87.6157 30.4666 85.7819 31.2387C83.9481 32.0108 82.4038 32.976 80.9561 34.3272C79.6048 35.6785 78.5432 37.2227 77.771 38.96C76.9989 40.6973 76.6128 42.5311 76.6128 44.3649C76.6128 46.8743 77.1919 48.9977 78.3501 50.928C79.5083 52.8583 81.1491 54.3061 83.1759 55.3677C85.2028 56.4304 87.3261 56.913 89.739 56.913C91.7659 56.913 93.5997 56.5269 95.337 55.8503C97.0742 55.1757 98.6185 54.113 99.9697 52.8583C101.32 51.6036 102.285 50.0594 103.057 48.2256C103.83 46.3917 104.215 44.5579 104.215 42.4346C104.215 39.7321 103.636 37.4157 102.478 35.5819C101.32 33.7481 99.7767 32.3969 97.8464 31.4317ZM94.9509 45.7161C94.4683 46.8743 93.7927 47.743 92.9241 48.5151C92.0554 49.1907 91.0902 49.5768 89.9321 49.5768C88.5808 49.5768 87.4226 49.0942 86.6505 48.129C85.7819 47.1639 85.3958 46.0057 85.3958 44.5579C85.3958 43.5928 85.5888 42.5311 85.9749 41.3729C86.361 40.2147 87.0366 39.2496 87.9052 38.4774C88.7739 37.7053 89.8355 37.3192 91.2833 37.3192C92.6345 37.3192 93.6962 37.8018 94.4683 38.6705C95.337 39.5391 95.723 40.7938 95.723 42.3381C95.6265 43.4963 95.4335 44.6545 94.9509 45.7161Z" fill="#B7C0CC"/>
</g>
<defs>
<clipPath id="clip0_641_15865">
<rect width="158.231" height="32.912" fill="white" transform="translate(21 24)"/>
</clipPath>
</defs>
</svg>
