<svg width="200" height="80" viewBox="0 0 200 80" fill="none" xmlns="http://www.w3.org/2000/svg">
<g clip-path="url(#clip0_641_15830)">
<path d="M180.159 51.3537C180.822 51.3537 181.213 51.2454 181.459 51.0268C181.65 50.8272 181.746 50.3637 181.746 49.6092V34.149C181.746 33.3579 181.659 32.833 181.495 32.5712C181.276 32.2393 180.814 32.0733 180.112 32.0733H179.577V30.9577L185.796 30.4759V49.6172C185.796 50.5999 186.059 51.1541 186.587 51.2725C186.796 51.3266 187.106 51.3537 187.505 51.3537V52.5549H180.159V51.3537ZM170.402 45.7891C170.975 45.3029 172.002 44.9169 173.486 44.6244V46.8258C173.486 48.0717 173.294 49.017 172.922 49.6626C172.441 50.5268 171.813 50.9537 171.03 50.9537C170.567 50.9537 170.176 50.7549 169.858 50.3454C169.539 49.9353 169.377 49.3445 169.377 48.563C169.376 47.2894 169.722 46.3711 170.402 45.7891ZM167.762 39.9043C167.884 39.579 168.203 39.2675 168.722 38.9722C169.318 38.6363 169.992 38.461 170.677 38.4633C172.55 38.4633 173.486 39.3202 173.486 41.0383V43.402C170.713 43.9423 168.73 44.566 167.522 45.2708C165.949 46.1795 165.158 47.4531 165.158 49.0901C165.158 50.0537 165.453 50.8996 166.049 51.6176C166.827 52.5461 167.978 53.0082 169.505 53.0082C170.374 53.0082 171.205 52.7625 171.996 52.2624C172.733 51.8069 173.287 51.2257 173.66 50.5158V51.2433C173.681 51.8618 173.681 52.307 173.66 52.5527H179.037V51.3522H178.832C177.969 51.3522 177.537 50.76 177.537 49.5697V42.3975C177.537 38.9363 175.577 37.2036 171.669 37.2036C170.087 37.2036 168.76 37.5377 167.682 38.206C166.604 38.872 166.068 39.7442 166.068 40.8292C166.068 41.5764 166.313 42.1679 166.814 42.5978C167.231 42.9555 167.765 43.1486 168.314 43.141C168.946 43.141 169.469 42.9429 169.887 42.5473C170.31 42.1562 170.522 41.7139 170.522 41.2299C170.522 40.0301 169.881 39.4277 168.614 39.4277C168.132 39.4277 167.742 39.5819 167.449 39.8868L167.764 40.0089C167.767 39.9409 167.767 39.9043 167.762 39.9043ZM63.6804 43.3055C66.1311 43.3055 68.0897 42.8259 69.5629 41.8732C71.227 40.808 72.0546 39.2346 72.0546 37.1451C72.0546 34.9744 71.2138 33.3579 69.5315 32.2919C68.1 31.3802 66.1632 30.9233 63.7169 30.9233H55.5701V32.1033C56.5381 32.1033 57.1383 32.1735 57.3701 32.308C57.7656 32.531 57.9652 33.1379 57.9652 34.1336V49.5083C57.9652 50.2621 57.8014 50.7724 57.4695 51.0356C57.1968 51.2447 56.688 51.3449 55.9371 51.3449H55.5693V52.5461H65.2625V51.3449H64.2536C63.4764 51.3449 62.9485 51.2264 62.667 50.972C62.3856 50.7264 62.2444 50.2445 62.2444 49.5083V43.3055H63.6804ZM67.6079 37.1612C67.6079 40.3437 66.308 41.9347 63.7162 41.9347H62.3527V32.1808H63.7162C66.308 32.1808 67.6079 33.8426 67.6079 37.1612ZM78.223 40.5185C78.7867 38.3069 79.9821 37.1999 81.8187 37.1999C82.4913 37.1999 83.0279 37.382 83.433 37.7497C83.8373 38.1175 84.042 38.6022 84.042 39.2091C84.0453 39.7267 83.8629 40.2283 83.528 40.623C83.1369 41.0778 82.6463 41.3088 82.0548 41.3088C81.4911 41.3088 81.0415 41.1341 80.7096 40.789C80.3915 40.4863 80.2504 40.1142 80.2775 39.6726C80.2775 39.6316 80.3001 39.5271 80.3367 39.3611C79.7818 40.0593 79.346 41.2547 79.0185 42.937C78.7546 44.2852 78.6186 45.5215 78.6186 46.6357V49.6085C78.6186 50.3082 78.7005 50.7629 78.8547 50.972C79.0455 51.2264 79.5639 51.3449 80.4003 51.3449H80.9048V52.5461H72.7499V51.3449H73.0548C73.6141 51.3449 74.0184 51.2447 74.264 51.0451C74.509 50.8536 74.6274 50.363 74.6274 49.6085V43.1257C74.6274 40.8914 74.5682 39.6477 74.4454 39.3999C74.2728 38.9978 73.9365 38.7974 73.4364 38.7974H73.0094V37.5999H78.1192L78.223 40.5185ZM95.1477 50.1627C95.0841 50.1999 95.0205 50.2541 94.9386 50.3001L95.1477 50.1824C94.8933 50.8821 94.4246 51.5094 93.7337 52.046C92.951 52.672 91.9767 53.0096 90.9745 53.0023C89.2468 53.0023 88.0288 52.5293 87.3196 51.5745C86.7559 50.828 86.4693 49.656 86.4693 48.0644V41.8031C86.4693 40.3935 86.4057 39.571 86.2829 39.3348C86.1103 39.019 85.7053 38.8552 85.0604 38.8552H84.9332V37.6028H90.5797V48.5922C90.5797 50.0464 91.1843 50.7746 92.3936 50.7746C93.3937 50.7746 94.0707 50.0837 94.421 48.6741C94.5752 48.1104 94.6483 47.3376 94.6483 46.355V41.8089C94.6483 40.2538 94.576 39.397 94.4253 39.231C94.2075 38.9831 93.7527 38.8537 93.0567 38.8537H92.6297V37.6013H98.7945V48.8181C98.7945 50.0457 98.8676 50.7636 99.0175 50.9552C99.2083 51.2184 99.5768 51.3456 100.118 51.3456H100.504V52.5461H95.0307L94.9393 50.1371L95.0307 50.1999L95.0578 50.265L95.1477 50.1627ZM107.273 37.2584C105.258 37.2584 103.632 38.1226 102.395 39.8429C101.304 41.3754 100.758 43.1257 100.758 45.0982C100.758 47.2623 101.158 49.017 101.976 50.3725C103.013 52.1264 104.617 53.0001 106.796 53.0001C107.914 53.0001 108.886 52.6543 109.714 51.9634C110.36 51.4092 110.783 50.7995 110.979 50.1356L110.874 50.2175L110.751 50.0998L110.856 52.5461H116.216V51.3624H115.947C115.334 51.3624 114.928 51.1987 114.734 50.8806C114.579 50.6532 114.506 50.2263 114.506 49.6165V30.4693L108.233 30.9489V32.0675H108.642C109.433 32.0675 109.942 32.2832 110.175 32.7109C110.312 32.9631 110.394 33.5334 110.421 34.4246C110.421 36.8293 110.462 38.2359 110.544 38.6366C109.962 37.7154 108.867 37.2584 107.273 37.2584ZM110.454 43.4802V46.5085C110.454 47.3354 110.391 48.0263 110.268 48.5717C109.895 50.227 109.104 51.0627 107.904 51.0627C106.222 51.0627 105.377 49.0711 105.377 45.0982C105.377 43.3304 105.478 42.0275 105.667 41.1838C106.052 39.5541 106.821 38.7389 107.967 38.7389C109.623 38.7382 110.454 40.3204 110.454 43.4802ZM120.782 44.7305H129.879C129.865 42.483 129.361 40.7093 128.37 39.4138C127.253 37.9384 125.597 37.1999 123.406 37.1999C121.392 37.1999 119.724 37.9252 118.396 39.3728C117.059 40.8643 116.396 42.7645 116.396 45.0712C116.396 47.4444 116.978 49.3263 118.15 50.7183C119.405 52.2463 121.191 53.0001 123.505 53.0001C125.3 53.0001 126.814 52.337 128.041 51.0181C129.115 49.8629 129.673 48.6266 129.715 47.2996H128.202C128.187 48.2808 127.815 49.2005 127.084 50.0552C126.255 51.0371 125.27 51.5189 124.119 51.5189C122.478 51.5189 121.442 50.3462 121.015 48C120.861 47.217 120.782 46.1349 120.782 44.7305ZM123.362 38.3405C124.933 38.3405 125.725 40.052 125.725 43.4751H120.782C120.797 42.9414 120.819 42.4976 120.846 42.1416C121.055 39.609 121.893 38.3405 123.362 38.3405ZM135.794 39.5454C136.136 38.8523 136.681 38.2908 137.425 37.8543C138.172 37.4178 138.998 37.1992 139.912 37.1992C142.908 37.1992 144.407 38.8267 144.407 42.0838V48.8905C144.407 49.6443 144.413 50.0983 144.425 50.254C144.479 50.9808 144.943 51.3441 145.802 51.3441H146.116V52.5446H140.297V41.5596C140.297 40.8 140.207 40.2546 140.024 39.9226C139.762 39.4386 139.266 39.1952 138.534 39.1952C137.844 39.1952 137.289 39.5315 136.87 40.2092C136.458 40.8892 136.247 41.8886 136.247 43.2119V48.8445C136.247 50.1086 136.306 50.817 136.433 50.9537C136.683 51.2177 137.128 51.3449 137.765 51.3449H138.015V52.5461H130.433V51.3449H130.838C131.611 51.3449 132.025 50.9822 132.084 50.254C132.111 50.0822 132.125 49.5902 132.125 48.7808V41.3044C132.125 40.1427 132.038 39.4357 131.866 39.1813C131.698 38.9246 131.334 38.7974 130.78 38.7974H130.435V37.5999H135.794V39.5454ZM151.757 52.9994C149.27 52.9994 148.02 51.5891 148.02 48.7713V38.8523H145.347V37.654H145.757C147.221 37.654 148.456 36.8315 149.476 35.1762C150.348 33.7878 150.795 32.3665 150.822 30.9233H152.076V37.654H154.93V38.8523H152.076V49.2714C152.076 50.4997 152.455 51.1175 153.213 51.1175C153.881 51.1175 154.314 50.5348 154.509 49.3709C154.577 48.9527 154.613 48.1155 154.613 46.8704H156.013C156.013 48.9263 155.827 50.3337 155.458 51.0707C154.838 52.3626 153.601 52.9994 151.757 52.9994ZM30.7398 23.1793C20.2088 23.1793 13.329 31.835 13.329 39.8926C13.329 44.5206 14.4564 46.8251 15.6927 49.0338C17.2522 44.8438 20.3689 36.5076 20.3689 36.5076C20.3689 36.5076 21.8209 35.7574 21.8209 35.8671L23.9141 30.546L25.2601 29.8478L26.9285 26.2997L30.5768 26.8912L37.9955 31.0278L46.3236 33.3404C44.1778 27.8599 38.1044 23.1793 30.7398 23.1793ZM30.6302 58.8637C26.0636 58.8637 20.4764 57.2545 16.4443 52.3085H44.7685C41.4865 56.5548 35.8489 58.8637 30.6302 58.8637ZM36.2225 51.4538H33.6402L38.4319 45.485L38.9137 46.3981L36.2225 51.4538ZM38.75 32.4784L30.5307 27.6983L27.5193 27.1595V29.3624L29.8311 31.5148L26.6054 31.2421C26.6054 31.2421 26.7099 31.4058 29.3946 34.2535L41.6503 36.2948L43.7961 37.6927L38.2133 37.961L35.9037 46.3981L28.3235 51.4538H23.3775L25.0459 48.1718L24.7754 48.0636L20.3134 51.4553H19.2408L23.8074 45.0536C24.0231 43.2287 23.9141 44.0344 24.1846 40.7539L23.4864 39.7888L21.6586 46.8807L17.8422 51.4545H16.8735L19.1304 48.28L22.3013 38.5547L21.4941 38.9276L20.0962 42.7981L19.1304 43.334C19.1304 43.334 16.8735 48.8167 15.6912 51.4984C13.9738 49.036 12.0371 45.7028 12.0371 39.8934C12.0371 31.1872 19.5084 22 30.7398 22C41.5414 22 47.2967 30.5987 48.2604 35.0563L38.75 32.4784ZM44.0689 45.0529L42.505 46.3981L39.3955 51.4538H37.3499L39.3955 47.8436L41.0047 46.5071L43.3231 40.0038L45.787 41.0244L44.0689 45.0529ZM45.523 51.4538H41.3864L45.3052 45.2708L46.4874 41.2386L48.96 42.0999C48.7422 45.2166 47.7237 48.3809 45.523 51.4538ZM40.4681 44.0344L39.2318 44.2538L39.5593 41.7775L39.2318 41.2935L39.5593 38.4977L42.7236 39.7888L40.4681 44.0344ZM157.006 51.3537H157.402C157.992 51.3537 158.365 51.1621 158.514 50.7995C158.61 50.5355 158.655 49.8804 158.655 48.8262V41.0113C158.655 39.9519 158.554 39.3312 158.335 39.1425C158.127 38.9561 157.813 38.8632 157.4 38.8632H157.005V37.6649H162.71V48.8254C162.71 50.0537 162.783 50.7717 162.938 50.98C163.129 51.2345 163.483 51.3529 164.019 51.3529H164.429V52.5541H157.006V51.3537ZM158.093 33.4786C158.093 32.8037 158.329 32.2327 158.808 31.7575C159.032 31.5279 159.301 31.3464 159.598 31.2241C159.895 31.1018 160.213 31.0413 160.535 31.0461C160.857 31.0415 161.177 31.1021 161.475 31.2243C161.774 31.3466 162.044 31.5279 162.271 31.7575C162.758 32.2327 162.999 32.803 162.999 33.4786C162.999 34.1556 162.758 34.7353 162.271 35.2193C161.79 35.7099 161.212 35.9534 160.535 35.9534C159.857 35.9534 159.285 35.7099 158.808 35.2193C158.577 34.9929 158.394 34.7217 158.271 34.4225C158.148 34.1232 158.087 33.802 158.093 33.4786Z" fill="#B7C0CC"/>
</g>
<defs>
<clipPath id="clip0_641_15830">
<rect width="175.541" height="36.8637" fill="white" transform="translate(12 22)"/>
</clipPath>
</defs>
</svg>
