<svg width="24" height="26" viewBox="0 0 24 26" fill="none" xmlns="http://www.w3.org/2000/svg">
<g style="mix-blend-mode:screen">
<path d="M1.1133 0.322266C0.820318 0.61525 0.722656 1.10516 0.722656 1.69112V23.3143C0.722656 23.9019 0.917979 24.3902 1.21256 24.6848L1.31023 24.7824L13.4426 12.65V12.4547L1.1133 0.322266Z" fill="url(#paint0_linear_731_493)"/>
<path d="M17.3562 16.7586L13.3457 12.7465V12.4535L17.3578 8.44141L17.4555 8.53907L22.2505 11.2784C23.621 12.0613 23.621 13.3325 22.2505 14.1154L17.3562 16.7586Z" fill="url(#paint1_linear_731_493)"/>
<path d="M17.4528 16.6625L13.343 12.5527L1.11133 24.7828C1.60124 25.2727 2.28486 25.2727 3.16542 24.8805L17.4528 16.6625Z" fill="url(#paint2_linear_731_493)"/>
<path d="M17.4528 8.44252L3.16702 0.322226C2.28647 -0.167681 1.60124 -0.0700197 1.11133 0.419888L13.343 12.5523L17.4528 8.44252Z" fill="url(#paint3_linear_731_493)"/>
</g>
<defs>
<linearGradient id="paint0_linear_731_493" x1="7.08252" y1="0.251357" x2="7.08252" y2="24.6011" gradientUnits="userSpaceOnUse">
<stop stop-color="#267CAF"/>
<stop offset="0.286" stop-color="#4A92B4"/>
<stop offset="0.767" stop-color="#79BCBA"/>
<stop offset="1" stop-color="#88CEBC"/>
</linearGradient>
<linearGradient id="paint1_linear_731_493" x1="19.6765" y1="9.61252" x2="16.707" y2="16.3293" gradientUnits="userSpaceOnUse">
<stop stop-color="#F48879"/>
<stop offset="0.119" stop-color="#F5907A"/>
<stop offset="0.713" stop-color="#FBB777"/>
<stop offset="1" stop-color="#FDC874"/>
</linearGradient>
<linearGradient id="paint2_linear_731_493" x1="15.2574" y1="14.7208" x2="1.89587" y2="25.5263" gradientUnits="userSpaceOnUse">
<stop stop-color="#EB413D"/>
<stop offset="0.167" stop-color="#D94452"/>
<stop offset="0.575" stop-color="#AF487A"/>
<stop offset="0.862" stop-color="#954B92"/>
<stop offset="1" stop-color="#894A9C"/>
</linearGradient>
<linearGradient id="paint3_linear_731_493" x1="2.84424" y1="0.911877" x2="15.6249" y2="10.6716" gradientUnits="userSpaceOnUse">
<stop stop-color="#54C0AC"/>
<stop offset="1" stop-color="#DDE79A"/>
</linearGradient>
</defs>
</svg>
