<svg width="214" height="58" viewBox="0 0 214 58" fill="none" xmlns="http://www.w3.org/2000/svg">
<g opacity="0.3">
<path d="M213.281 56.9156C201.435 56.9156 201.435 44.1328 189.589 44.1328C177.743 44.1328 177.743 56.9156 165.897 56.9156C154.05 56.9156 154.05 44.1328 142.204 44.1328C130.358 44.1328 130.358 56.9155 118.512 56.9155C106.666 56.9155 106.666 44.1328 94.8194 44.1328C82.9732 44.1328 82.9732 56.9155 71.127 56.9155C59.2809 56.9155 59.2809 44.1328 47.4347 44.1328C35.5885 44.1328 35.5885 56.9155 23.717 56.9155C11.8708 56.9155 11.8708 44.1328 -0.000695147 44.1328" stroke="#3688FF" stroke-width="1.6" stroke-miterlimit="10"/>
<path d="M213.281 35.3491C201.435 35.3491 201.435 22.5664 189.589 22.5664C177.743 22.5664 177.743 35.3491 165.897 35.3491C154.05 35.3491 154.05 22.5664 142.204 22.5664C130.358 22.5664 130.358 35.3491 118.512 35.3491C106.666 35.3491 106.666 22.5664 94.8194 22.5664C82.9732 22.5664 82.9732 35.3491 71.127 35.3491C59.2809 35.3491 59.2809 22.5664 47.4347 22.5664C35.5885 22.5664 35.5885 35.3491 23.717 35.3491C11.8708 35.3491 11.8708 22.5664 -0.000695147 22.5664" stroke="#3688FF" stroke-width="1.6" stroke-miterlimit="10"/>
<path d="M213.281 13.7827C201.435 13.7827 201.435 0.999999 189.589 0.999999C177.743 0.999998 177.743 13.7827 165.897 13.7827C154.05 13.7827 154.05 0.999997 142.204 0.999997C130.358 0.999996 130.358 13.7827 118.512 13.7827C106.666 13.7827 106.666 0.999995 94.8194 0.999995C82.9732 0.999994 82.9732 13.7827 71.127 13.7827C59.2809 13.7827 59.2809 0.999993 47.4347 0.999993C35.5885 0.999992 35.5885 13.7827 23.717 13.7827C11.8708 13.7827 11.8708 0.999991 -0.000695147 0.999991" stroke="#3688FF" stroke-width="1.6" stroke-miterlimit="10"/>
</g>
</svg>
