<svg width="149" height="44" viewBox="0 0 149 44" fill="none" xmlns="http://www.w3.org/2000/svg">
<path d="M147.513 38.8049C147.513 41.1315 145.627 43.0198 143.298 43.0198C143.297 43.0198 143.295 43.0198 143.293 43.0198H5.20394C2.87388 43.0216 0.982035 41.135 0.978516 38.8049V5.19866C0.982035 2.8686 2.87388 0.980275 5.20394 0.978516H143.291C145.621 0.978516 147.511 2.86684 147.511 5.1969C147.511 5.1969 147.511 5.1969 147.511 5.19866L147.513 38.8049Z" fill="white"/>
<path d="M143.293 44H5.2039C2.33357 44 0.00527958 41.6752 0 38.8049V5.20038C0.00351972 2.32829 2.33181 0.00175986 5.2039 0H143.291C146.163 0.00351972 148.49 2.32829 148.495 5.20038V38.8049C148.499 41.6699 146.16 44 143.293 44Z" fill="black"/>
<path d="M147.513 38.8049C147.513 41.1315 145.627 43.0198 143.298 43.0198C143.297 43.0198 143.295 43.0198 143.293 43.0198H5.20394C2.87388 43.0216 0.982035 41.135 0.978516 38.8049V5.19866C0.982035 2.8686 2.87388 0.980275 5.20394 0.978516H143.291C145.621 0.978516 147.511 2.86684 147.511 5.1969C147.511 5.1969 147.511 5.1969 147.511 5.19866L147.513 38.8049Z" fill="#1A1E23"/>
<path opacity="0.1" d="M143.291 0H69.3281L98.2989 44H143.293C146.165 43.9982 148.492 41.6735 148.497 38.8014V5.20038C148.492 2.32829 146.164 0.00351972 143.291 0Z" fill="white"/>
<path d="M43.5369 13.764L42.7274 16.2173H41.6855L44.3359 8.41406H45.552L48.2146 16.2173H47.1376L46.3034 13.764H43.5369ZM46.094 12.9756L45.3302 10.73C45.156 10.2197 45.0416 9.75859 44.9254 9.30631H44.9026C44.7864 9.76915 44.6597 10.2443 44.5084 10.7195L43.7446 12.9774H46.094V12.9756Z" fill="white"/>
<path d="M49.4782 10.6133L50.5781 13.7617C50.7629 14.2703 50.9143 14.7331 51.0304 15.1977H51.0656C51.1923 14.7349 51.3542 14.272 51.5408 13.7617L52.6284 10.6133H53.6931L51.4933 16.2167H50.5201L48.3906 10.6133H49.4782Z" fill="white"/>
<path d="M57.7106 16.2164L57.6296 15.5107H57.5944C57.2812 15.9507 56.6793 16.3449 55.8803 16.3449C54.7452 16.3449 54.168 15.5459 54.168 14.7364C54.168 13.3813 55.3717 12.6404 57.5363 12.6527V12.5366C57.5363 12.0737 57.4096 11.2395 56.2622 11.2395C55.7413 11.2395 55.1975 11.4015 54.8033 11.6566L54.5727 10.9844C55.0356 10.6834 55.7078 10.4863 56.4135 10.4863C58.1259 10.4863 58.543 11.6549 58.543 12.7794V14.8754C58.543 15.3611 58.5659 15.8363 58.6362 16.2182H57.7106V16.2164ZM57.561 13.3567C56.4505 13.3338 55.1887 13.5309 55.1887 14.6185C55.1887 15.2784 55.6286 15.5899 56.1496 15.5899C56.8781 15.5899 57.341 15.1271 57.5047 14.6519C57.5399 14.5481 57.5627 14.4319 57.5627 14.3281V13.3567H57.561Z" fill="white"/>
<path d="M61.3243 9.03941C61.3366 9.3861 61.0815 9.66416 60.6767 9.66416C60.3177 9.66416 60.0625 9.3861 60.0625 9.03941C60.0625 8.6804 60.3282 8.40234 60.6996 8.40234C61.0815 8.40234 61.3243 8.6804 61.3243 9.03941ZM60.1892 16.2161V10.6127H61.2082V16.2161H60.1892Z" fill="white"/>
<path d="M62.8984 7.99609H63.9174V16.2164H62.8984V7.99609Z" fill="white"/>
<path d="M68.734 16.2164L68.653 15.5107H68.6179C68.3046 15.9507 67.7027 16.3449 66.9038 16.3449C65.7686 16.3449 65.1914 15.5459 65.1914 14.7364C65.1914 13.3813 66.3951 12.6404 68.5598 12.6527V12.5366C68.5598 12.0737 68.4331 11.2395 67.2856 11.2395C66.7647 11.2395 66.2209 11.4015 65.8267 11.6566L65.5962 10.9844C66.059 10.6834 66.7313 10.4863 67.437 10.4863C69.1493 10.4863 69.5664 11.6549 69.5664 12.7794V14.8754C69.5664 15.3611 69.5893 15.8363 69.6597 16.2182H68.734V16.2164ZM68.5827 13.3567C67.4722 13.3338 66.2104 13.5309 66.2104 14.6185C66.2104 15.2784 66.6503 15.5899 67.1712 15.5899C67.8998 15.5899 68.3627 15.1271 68.5263 14.6519C68.5615 14.5481 68.5844 14.4319 68.5844 14.3281V13.3567H68.5827Z" fill="white"/>
<path d="M71.168 16.2164C71.1908 15.8345 71.2137 15.2661 71.2137 14.7698V7.99609H72.2204V11.5158H72.2432C72.6023 10.8911 73.2499 10.4845 74.1527 10.4845C75.5412 10.4845 76.525 11.6425 76.5144 13.3443C76.5144 15.347 75.2526 16.3431 74.0013 16.3431C73.1918 16.3431 72.5424 16.0299 72.1253 15.2889H72.0901L72.0444 16.2146H71.168V16.2164ZM72.2204 13.9708C72.2204 14.0975 72.2432 14.226 72.2661 14.3421C72.4632 15.0478 73.0528 15.5336 73.7937 15.5336C74.8584 15.5336 75.4955 14.666 75.4955 13.3813C75.4955 12.2585 74.9165 11.2976 73.8289 11.2976C73.1337 11.2976 72.4861 11.7728 72.2784 12.5471C72.2556 12.6632 72.2204 12.8023 72.2204 12.9642V13.9708Z" fill="white"/>
<path d="M77.8008 7.99609H78.8197V16.2164H77.8008V7.99609Z" fill="white"/>
<path d="M81.1005 13.5993C81.1234 14.9773 82.0034 15.544 83.0223 15.544C83.7527 15.544 84.1909 15.4173 84.5745 15.2536L84.7487 15.9839C84.3897 16.1458 83.7773 16.3306 82.885 16.3306C81.1604 16.3306 80.1309 15.1955 80.1309 13.5061C80.1309 11.8166 81.1269 10.4844 82.7583 10.4844C84.5868 10.4844 85.0743 12.0929 85.0743 13.1242C85.0743 13.3336 85.0514 13.4955 85.0391 13.5993H81.1005ZM84.087 12.8707C84.0993 12.2231 83.8213 11.2147 82.6756 11.2147C81.6443 11.2147 81.1938 12.1633 81.1129 12.8707H84.087Z" fill="white"/>
<path d="M93.8616 13.369C93.8616 15.4421 92.4256 16.3449 91.0723 16.3449C89.5553 16.3449 88.3867 15.2327 88.3867 13.4622C88.3867 11.5862 89.6133 10.4863 91.1655 10.4863C92.7723 10.4863 93.8616 11.6549 93.8616 13.369ZM89.4162 13.4271C89.4162 14.6537 90.1219 15.5811 91.118 15.5811C92.0895 15.5811 92.8198 14.666 92.8198 13.4042C92.8198 12.4556 92.3446 11.2519 91.1409 11.2519C89.9372 11.2501 89.4162 12.3623 89.4162 13.4271Z" fill="white"/>
<path d="M95.1473 12.1298C95.1473 11.5508 95.135 11.0757 95.1016 10.6128H96.0044L96.0624 11.5385H96.0853C96.3634 11.0053 97.011 10.4844 97.9367 10.4844C98.7128 10.4844 99.9165 10.9472 99.9165 12.869V16.2145H98.8976V12.9869C98.8976 12.0841 98.5614 11.3309 97.6006 11.3309C96.93 11.3309 96.4091 11.806 96.2349 12.3727C96.1892 12.4994 96.1663 12.6736 96.1663 12.8479V16.2162H95.1473V12.1298Z" fill="white"/>
<path d="M64.6374 25.2709C63.5269 25.2709 62.6769 25.7812 62.0873 26.802H62.0557V25.461H60.2659V33.5387H62.0557V28.9314C62.0557 28.2943 62.2316 27.7681 62.5854 27.3493C62.9391 26.9304 63.3773 26.5925 63.9193 26.5925C64.9594 26.5925 65.7725 27.0202 65.7408 28.986V33.5387H67.2701V28.6005C67.2701 27.5217 67.0449 26.6981 66.5943 26.1279C66.1456 25.556 65.4927 25.2709 64.6374 25.2709ZM81.7291 25.2709C80.4145 25.2709 79.3691 25.6528 78.593 26.4148C77.8169 27.1768 77.4298 28.238 77.4298 29.5949C77.4298 30.8408 77.8011 31.8422 78.5455 32.5972C79.29 33.3522 80.2843 33.7288 81.532 33.7288C82.8149 33.7288 83.8374 33.3416 84.5959 32.5655C85.3562 31.7894 85.7363 30.7581 85.7363 29.4682C85.7363 28.1535 85.3843 27.124 84.6786 26.3831C83.9729 25.6422 82.9927 25.2709 81.7291 25.2709ZM83.2796 31.5589C82.8941 32.0375 82.3398 32.2769 81.62 32.2769C80.9161 32.2769 80.3529 32.034 79.9323 31.5465C79.5117 31.0608 79.3005 30.3938 79.3005 29.5473C79.3005 28.6692 79.5082 27.9793 79.9235 27.4795C80.3388 26.9797 80.9037 26.7298 81.62 26.7298C82.3398 26.7298 82.8941 26.9727 83.2796 27.4549C83.6667 27.9388 83.8603 28.6252 83.8603 29.5139C83.8603 30.3991 83.6667 31.0802 83.2796 31.5589ZM74.5735 26.2652H74.5419C74.0473 25.3923 73.2572 25.2726 72.1678 25.2726C71.0679 25.2726 70.1897 25.6757 69.528 26.4799C68.8681 27.2842 68.5372 28.3559 68.5372 29.6917C68.5372 30.9376 68.8364 31.9232 69.433 32.6465C70.0296 33.3698 70.825 33.7323 71.8193 33.7323C73.0442 33.7323 73.9523 33.4155 74.5401 32.3754H74.5718V33.544H76.402V21.584H74.5718V26.2652H74.5735ZM74.5982 29.8606C74.5982 30.5857 74.3958 31.1875 73.9928 31.6662C73.588 32.1449 73.0618 32.3825 72.4124 32.3825C71.7525 32.3825 71.2263 32.1361 70.8356 31.6416C70.4449 31.1471 70.2496 30.4748 70.2496 29.623C70.2496 28.685 70.4537 27.9494 70.8602 27.4197C71.2668 26.89 71.8246 26.626 72.5356 26.626C73.1357 26.626 73.6302 26.8336 74.0174 27.249C74.4046 27.6643 74.5999 28.1694 74.5999 28.7642V29.8606H74.5982ZM94.3913 31.3072C94.3244 31.5747 94.284 31.807 94.2734 32.0006H94.2188C94.1977 31.7225 94.1643 31.4902 94.1168 31.3072L92.6754 25.461H90.9684L89.3475 31.2667C89.2789 31.5184 89.2384 31.756 89.2226 31.976H89.168C89.1522 31.6873 89.1205 31.455 89.073 31.2826L87.6158 25.461H85.7363L88.0928 33.5387H89.9565L91.5386 28.0479C91.6213 27.7646 91.6688 27.5323 91.6794 27.3546H91.711C91.7269 27.6168 91.7621 27.8544 91.8201 28.0638L93.2773 33.5387H95.1797L97.545 25.461H95.8133L94.3913 31.3072ZM56.8553 33.5387H58.6855V25.461H56.8553V33.5387ZM52.3729 30.5417C52.2691 30.9728 52.2092 31.3195 52.1952 31.5835H52.1635C52.1265 31.1946 52.0737 30.8584 51.9998 30.5733L49.8862 22.2263H47.9821L45.6978 30.51C45.5728 30.9676 45.5007 31.3301 45.4795 31.5993H45.4408C45.4197 31.221 45.3687 30.8584 45.286 30.51L43.2656 22.2263H41.2383L44.355 33.5387H46.4915L48.6209 25.6105C48.7194 25.255 48.7828 24.8908 48.8074 24.5212H48.8391C48.8602 24.9207 48.913 25.2885 49.0028 25.6264L51.1234 33.5387H53.2141L56.2675 22.2263H54.3563L52.3729 30.5417ZM102.48 29.7884C102.3 29.6019 102.084 29.4347 101.828 29.2869C101.549 29.1267 101.262 28.9824 100.968 28.854C100.725 28.7642 100.51 28.6815 100.324 28.6058C100.137 28.5301 99.9771 28.4457 99.8433 28.3524C99.7096 28.2609 99.6093 28.1535 99.5424 28.0339C99.4738 27.9124 99.4403 27.7664 99.4403 27.5921C99.4386 27.4549 99.4738 27.3211 99.5424 27.2015C99.6128 27.08 99.7096 26.9762 99.8257 26.897C99.9472 26.8125 100.093 26.7474 100.266 26.6999C100.438 26.6524 100.63 26.6295 100.843 26.6295C101.52 26.6295 102.122 26.8248 102.645 27.2138V25.6123C102.101 25.3853 101.487 25.2726 100.799 25.2726C100.412 25.2726 100.035 25.3237 99.6726 25.4258C99.3101 25.5278 98.9845 25.6809 98.6994 25.8833C98.4196 26.0804 98.1856 26.3356 98.0166 26.633C97.8477 26.9304 97.7632 27.2736 97.7632 27.6625C97.7632 27.9776 97.8037 28.2538 97.8864 28.4914C97.9673 28.7255 98.0905 28.9402 98.2524 29.1267C98.4143 29.3133 98.6185 29.4805 98.8631 29.6283C99.1288 29.7867 99.4034 29.9257 99.6885 30.0471C99.912 30.1369 100.135 30.2267 100.361 30.3146C100.561 30.3938 100.736 30.4836 100.883 30.5821C101.031 30.6825 101.149 30.7968 101.235 30.9253C101.323 31.0538 101.366 31.2104 101.366 31.3952C101.366 32.0481 100.857 32.3737 99.8398 32.3737C99.0778 32.3737 98.3827 32.1132 97.7526 31.5923V33.2888C98.3492 33.5827 99.0532 33.7305 99.868 33.7305C100.289 33.7305 100.69 33.6813 101.07 33.5845C101.45 33.4877 101.786 33.3381 102.077 33.1392C102.363 32.9439 102.603 32.6834 102.774 32.3825C102.948 32.078 103.036 31.719 103.036 31.309C103.036 30.9728 102.986 30.6825 102.89 30.4378C102.796 30.1897 102.659 29.975 102.48 29.7884ZM57.8232 21.7934C57.2143 21.7934 56.7215 22.2475 56.7215 22.8071C56.7215 23.3667 57.2143 23.8208 57.8232 23.8208C58.4321 23.8208 58.9249 23.3667 58.9249 22.8071C58.9249 22.2475 58.4321 21.7934 57.8232 21.7934ZM132.248 25.3818C131.783 25.3818 131.331 25.5331 130.959 25.8112C130.553 26.1297 130.257 26.5556 130.067 27.0835H130.018L129.953 25.5489H128.399C128.436 26.3902 128.452 27.2331 128.45 28.0761V33.5739H130.233V29.3626C130.233 28.7237 130.382 28.1958 130.678 27.7787C131.019 27.3035 131.505 27.0677 132.131 27.0677C132.32 27.0677 132.508 27.0835 132.693 27.117L132.691 25.4152C132.561 25.3923 132.411 25.3818 132.248 25.3818ZM117.104 23.5462L115.353 24.0742V25.5437H114.183V26.8812H115.353V30.9271C115.353 31.9408 115.552 32.6605 115.948 33.0899C116.346 33.5193 116.896 33.7341 117.6 33.7341C118.174 33.7341 118.635 33.6672 118.987 33.5369L118.938 32.1836C118.728 32.2399 118.464 32.2663 118.146 32.2663C117.451 32.2663 117.106 31.7718 117.106 30.781V26.8847H119.072V25.5437H117.106V23.5462H117.104ZM123.617 25.3835C122.396 25.3835 121.423 25.7795 120.701 26.5732C119.981 27.3651 119.619 28.3841 119.619 29.6265C119.619 30.8144 119.969 31.8 120.668 32.5813C121.366 33.361 122.304 33.7516 123.484 33.7516C124.705 33.7516 125.687 33.3451 126.422 32.5303C127.126 31.7384 127.48 30.7265 127.48 29.4928C127.48 28.2926 127.141 27.3141 126.456 26.5556C125.741 25.7742 124.795 25.3835 123.617 25.3835ZM125.141 31.4462C124.754 32.0921 124.221 32.4177 123.538 32.4177C122.841 32.4177 122.303 32.0991 121.917 31.4621C121.597 30.9359 121.439 30.3041 121.439 29.5685C121.439 28.81 121.597 28.1694 121.917 27.6414C122.29 27.0044 122.838 26.6858 123.552 26.6858C124.246 26.6858 124.781 27.0044 125.155 27.6414C125.474 28.1694 125.632 28.7994 125.632 29.535C125.634 30.2706 125.469 30.906 125.141 31.4462ZM140.23 29.1795C140.23 28.1782 139.993 27.3352 139.523 26.6559C138.928 25.7971 138.052 25.3694 136.895 25.3694C135.718 25.3694 134.782 25.7988 134.088 26.6559C133.427 27.4602 133.096 28.4668 133.096 29.6758C133.096 30.9077 133.451 31.8915 134.161 32.6236C134.872 33.3539 135.848 33.72 137.093 33.72C138.127 33.72 139.025 33.5545 139.783 33.2237L139.504 31.9865C138.854 32.2399 138.131 32.3649 137.339 32.3649C136.623 32.3649 136.04 32.1783 135.59 31.8052C135.093 31.3864 134.833 30.7792 134.813 29.9873H140.163C140.213 29.7216 140.236 29.4506 140.23 29.1795ZM134.815 28.7149C134.87 28.1764 135.046 27.7136 135.343 27.3282C135.704 26.8424 136.179 26.6013 136.763 26.6013C137.4 26.6013 137.876 26.8495 138.184 27.3458C138.425 27.7312 138.543 28.187 138.53 28.7167L134.815 28.7149ZM111.245 27.1663C110.464 26.8583 109.924 26.5714 109.628 26.3074C109.287 26.0206 109.116 25.6563 109.116 25.2181C109.116 24.8204 109.267 24.4842 109.563 24.2097C109.917 23.9017 110.41 23.7469 111.038 23.7469C111.835 23.7469 112.546 23.9176 113.176 24.259L113.623 22.8053C112.953 22.4534 112.11 22.2774 111.096 22.2774C109.961 22.2774 109.049 22.5695 108.363 23.1538C107.675 23.7381 107.33 24.486 107.33 25.3994C107.33 26.7984 108.305 27.8614 110.255 28.5865C110.971 28.8504 111.481 29.1373 111.791 29.4453C112.097 29.7533 112.254 30.1334 112.254 30.5857C112.254 31.0907 112.066 31.4955 111.691 31.7982C111.318 32.1009 110.795 32.2523 110.123 32.2523C109.188 32.2523 108.328 32.0217 107.546 31.5589L107.134 33.0442C107.86 33.507 108.819 33.7376 110.017 33.7376C111.314 33.7376 112.324 33.412 113.049 32.7626C113.708 32.1678 114.038 31.397 114.038 30.4502C114.038 29.6811 113.813 29.037 113.359 28.5196C112.909 28.0022 112.203 27.5534 111.245 27.1663Z" fill="white"/>
<path d="M23.7073 10.6426C22.546 11.0544 21.6895 11.4003 21.6895 13.5993V14.6699L22.3813 14.5464V13.6322C22.3483 12.1168 22.7601 11.8038 23.7649 11.3673C23.7731 11.0873 23.7732 10.832 23.7073 10.6426Z" fill="white"/>
<path d="M25.7266 10.1736C25.7595 10.396 25.8172 10.6184 25.8172 10.8655C27.6455 10.6101 27.6126 11.3678 27.6126 12.9162V13.4845L28.3044 13.3609V12.9162C28.3126 10.4866 27.9338 9.82773 25.7266 10.1736Z" fill="white"/>
<path d="M18.5766 15.3045V12.0925C18.5436 10.1077 19.5814 9.50645 21.4756 9.06994C24.3088 8.41107 24.4982 10.2312 24.4982 11.4007V14.1103L25.19 13.9868V11.4666C25.19 9.25937 24.4982 7.59571 21.3191 8.32047C19.6225 8.69932 17.8848 9.13582 17.8848 12.0349V15.4363L18.5766 15.3045Z" fill="white"/>
<path d="M31.8048 13.5098L12.6562 17.3477V31.2664L31.8048 35.1044L35.618 33.7207V14.9181L31.8048 13.5098ZM21.0322 28.3756L16.7825 27.7744V24.2494H21.0322V28.3756ZM21.0322 23.7141H16.7825V20.4691L21.0322 19.8679V23.7141ZM26.9209 29.191L21.5675 28.4003V24.2412H26.9209V29.191ZM26.9209 23.7141H21.5675V19.8432L26.9209 19.0525V23.7141Z" fill="white"/>
</svg>
